<svg width="375" height="812" viewBox="0 0 375 812" fill="none" xmlns="http://www.w3.org/2000/svg">
<g clip-path="url(#clip0)">
<rect width="375" height="812" fill="white"/>
<rect width="375" height="812" fill="url(#paint0_linear)"/>
<g filter="url(#filter0_d)">
<path d="M0 0H375V812H0V0Z" fill="#027FFF"/>
<path d="M0 0H375V812H0V0Z" fill="url(#paint1_linear)"/>
<path d="M0 0H375V812H0V0Z" fill="#027FFF"/>
<path d="M0 0H375V812H0V0Z" fill="url(#paint2_linear)"/>
</g>
<path d="M109.43 72V52.14H124.04V54.3H111.68V60.96H122.72V63.15H111.68V69.84H124.04V72H109.43ZM133.093 72.24C131.633 72.24 130.353 71.9 129.253 71.22C128.173 70.52 127.333 69.58 126.733 68.4C126.133 67.22 125.833 65.92 125.833 64.5C125.833 63.06 126.133 61.76 126.733 60.6C127.333 59.42 128.173 58.49 129.253 57.81C130.353 57.11 131.633 56.76 133.093 56.76C134.333 56.76 135.393 57 136.273 57.48C137.173 57.96 137.903 58.61 138.463 59.43V57H140.713V72H138.463V69.6C137.903 70.4 137.173 71.04 136.273 71.52C135.393 72 134.333 72.24 133.093 72.24ZM133.393 70.2C134.513 70.2 135.453 69.94 136.213 69.42C136.993 68.9 137.583 68.21 137.983 67.35C138.383 66.47 138.583 65.52 138.583 64.5C138.583 63.46 138.383 62.51 137.983 61.65C137.583 60.79 136.993 60.1 136.213 59.58C135.453 59.06 134.513 58.8 133.393 58.8C132.293 58.8 131.343 59.06 130.543 59.58C129.743 60.1 129.133 60.79 128.713 61.65C128.293 62.51 128.083 63.46 128.083 64.5C128.083 65.52 128.293 66.47 128.713 67.35C129.133 68.21 129.743 68.9 130.543 69.42C131.343 69.94 132.293 70.2 133.393 70.2ZM150.064 72.24C148.684 72.24 147.514 72.01 146.554 71.55C145.614 71.09 144.894 70.49 144.394 69.75C143.894 68.99 143.614 68.17 143.554 67.29H145.894C145.954 67.79 146.124 68.28 146.404 68.76C146.704 69.22 147.154 69.6 147.754 69.9C148.354 70.18 149.134 70.32 150.094 70.32C150.394 70.32 150.764 70.29 151.204 70.23C151.644 70.17 152.064 70.06 152.464 69.9C152.884 69.74 153.234 69.5 153.514 69.18C153.794 68.86 153.934 68.45 153.934 67.95C153.934 67.33 153.694 66.85 153.214 66.51C152.734 66.17 152.114 65.91 151.354 65.73C150.594 65.53 149.784 65.34 148.924 65.16C148.084 64.98 147.284 64.75 146.524 64.47C145.764 64.17 145.144 63.76 144.664 63.24C144.184 62.7 143.944 61.97 143.944 61.05C143.944 59.69 144.434 58.64 145.414 57.9C146.414 57.14 147.884 56.76 149.824 56.76C151.144 56.76 152.214 56.97 153.034 57.39C153.874 57.79 154.504 58.31 154.924 58.95C155.364 59.59 155.624 60.28 155.704 61.02H153.424C153.344 60.38 153.024 59.83 152.464 59.37C151.924 58.91 151.024 58.68 149.764 58.68C147.384 58.68 146.194 59.4 146.194 60.84C146.194 61.44 146.434 61.9 146.914 62.22C147.394 62.54 148.014 62.8 148.774 63C149.534 63.18 150.334 63.36 151.174 63.54C152.034 63.7 152.844 63.93 153.604 64.23C154.364 64.53 154.984 64.96 155.464 65.52C155.944 66.06 156.184 66.8 156.184 67.74C156.184 69.2 155.624 70.32 154.504 71.1C153.404 71.86 151.924 72.24 150.064 72.24ZM160.637 77.94L163.367 71.79L157.247 57H159.737L164.567 69.3L169.487 57H171.947L163.067 77.94H160.637ZM178.489 72L172.309 52.14H174.679L179.779 68.82L185.119 52.14H187.699L193.039 68.82L198.139 52.14H200.509L194.329 72H191.779L186.409 55.32L181.039 72H178.489ZM208.393 72.24C206.873 72.24 205.543 71.9 204.403 71.22C203.263 70.52 202.373 69.58 201.733 68.4C201.113 67.22 200.803 65.92 200.803 64.5C200.803 63.06 201.103 61.76 201.703 60.6C202.303 59.42 203.163 58.49 204.283 57.81C205.403 57.11 206.723 56.76 208.243 56.76C209.783 56.76 211.103 57.11 212.203 57.81C213.323 58.49 214.183 59.42 214.783 60.6C215.383 61.76 215.683 63.06 215.683 64.5V65.4H203.113C203.233 66.28 203.513 67.09 203.953 67.83C204.413 68.55 205.023 69.13 205.783 69.57C206.543 69.99 207.423 70.2 208.423 70.2C209.483 70.2 210.373 69.97 211.093 69.51C211.813 69.03 212.373 68.42 212.773 67.68H215.233C214.713 69.02 213.883 70.12 212.743 70.98C211.623 71.82 210.173 72.24 208.393 72.24ZM203.143 63.3H213.343C213.143 62.02 212.603 60.95 211.723 60.09C210.843 59.23 209.683 58.8 208.243 58.8C206.803 58.8 205.643 59.23 204.763 60.09C203.903 60.95 203.363 62.02 203.143 63.3ZM224.762 72.24C223.302 72.24 222.022 71.9 220.922 71.22C219.842 70.52 219.002 69.58 218.402 68.4C217.802 67.22 217.502 65.92 217.502 64.5C217.502 63.06 217.802 61.76 218.402 60.6C219.002 59.42 219.842 58.49 220.922 57.81C222.022 57.11 223.302 56.76 224.762 56.76C226.002 56.76 227.062 57 227.942 57.48C228.842 57.96 229.572 58.61 230.132 59.43V57H232.382V72H230.132V69.6C229.572 70.4 228.842 71.04 227.942 71.52C227.062 72 226.002 72.24 224.762 72.24ZM225.062 70.2C226.182 70.2 227.122 69.94 227.882 69.42C228.662 68.9 229.252 68.21 229.652 67.35C230.052 66.47 230.252 65.52 230.252 64.5C230.252 63.46 230.052 62.51 229.652 61.65C229.252 60.79 228.662 60.1 227.882 59.58C227.122 59.06 226.182 58.8 225.062 58.8C223.962 58.8 223.012 59.06 222.212 59.58C221.412 60.1 220.802 60.79 220.382 61.65C219.962 62.51 219.752 63.46 219.752 64.5C219.752 65.52 219.962 66.47 220.382 67.35C220.802 68.21 221.412 68.9 222.212 69.42C223.012 69.94 223.962 70.2 225.062 70.2ZM237.894 72V58.98H234.834V57H237.894V51.63H240.144V57H243.594V58.98H240.144V72H237.894ZM246.059 72V51H248.309V59.34C248.849 58.62 249.509 58.01 250.289 57.51C251.069 57.01 252.069 56.76 253.289 56.76C254.329 56.76 255.299 57.01 256.199 57.51C257.119 57.99 257.859 58.72 258.419 59.7C258.999 60.66 259.289 61.85 259.289 63.27V72H257.039V63.33C257.039 61.97 256.649 60.88 255.869 60.06C255.089 59.22 254.079 58.8 252.839 58.8C251.999 58.8 251.239 58.99 250.559 59.37C249.879 59.75 249.329 60.29 248.909 60.99C248.509 61.67 248.309 62.46 248.309 63.36V72H246.059ZM269.712 72.24C268.192 72.24 266.862 71.9 265.722 71.22C264.582 70.52 263.692 69.58 263.052 68.4C262.432 67.22 262.122 65.92 262.122 64.5C262.122 63.06 262.422 61.76 263.022 60.6C263.622 59.42 264.482 58.49 265.602 57.81C266.722 57.11 268.042 56.76 269.562 56.76C271.102 56.76 272.422 57.11 273.522 57.81C274.642 58.49 275.502 59.42 276.102 60.6C276.702 61.76 277.002 63.06 277.002 64.5V65.4H264.432C264.552 66.28 264.832 67.09 265.272 67.83C265.732 68.55 266.342 69.13 267.102 69.57C267.862 69.99 268.742 70.2 269.742 70.2C270.802 70.2 271.692 69.97 272.412 69.51C273.132 69.03 273.692 68.42 274.092 67.68H276.552C276.032 69.02 275.202 70.12 274.062 70.98C272.942 71.82 271.492 72.24 269.712 72.24ZM264.462 63.3H274.662C274.462 62.02 273.922 60.95 273.042 60.09C272.162 59.23 271.002 58.8 269.562 58.8C268.122 58.8 266.962 59.23 266.082 60.09C265.222 60.95 264.682 62.02 264.462 63.3ZM279.751 72V57H282.001V60.69C282.081 60.43 282.231 60.09 282.451 59.67C282.691 59.23 283.031 58.79 283.471 58.35C283.911 57.91 284.461 57.54 285.121 57.24C285.801 56.92 286.601 56.76 287.521 56.76H287.671V59.01H287.401C286.281 59.01 285.311 59.32 284.491 59.94C283.691 60.54 283.071 61.33 282.631 62.31C282.211 63.27 282.001 64.3 282.001 65.4V72H279.751Z" fill="white"/>
<path d="M151.938 262.086C152.682 251.666 143.089 243.634 133.017 246.079C130.976 236.88 122.77 230 112.955 230C101.324 230 91.9455 239.665 92.423 251.401C92.4166 251.401 92.4105 251.401 92.4042 251.401C82.2397 251.401 74 259.64 74 269.805C74 279.73 81.8571 287.819 91.6904 288.194V288.209H150.813C158.04 288.209 163.9 282.349 163.9 275.122C163.9 268.273 158.639 262.657 151.938 262.086Z" fill="#D8ECFE"/>
<path d="M151.938 262.086C152.682 251.666 143.088 243.634 133.017 246.079C130.976 236.88 122.77 230 112.955 230C109.708 230 106.636 230.754 103.905 232.096C104.59 232.027 105.284 231.991 105.987 231.991C115.801 231.991 124.007 238.87 126.049 248.07C136.12 245.625 145.714 253.657 144.97 264.077C151.67 264.648 156.932 270.264 156.932 277.113C156.932 281.792 154.474 285.895 150.781 288.209H150.813C158.041 288.209 163.9 282.349 163.9 275.122C163.9 268.273 158.638 262.657 151.938 262.086Z" fill="#C4E2FF"/>
<path d="M184 340C214.376 340 239 315.376 239 285C239 254.624 214.376 230 184 230C153.624 230 129 254.624 129 285C129 315.376 153.624 340 184 340Z" fill="#FCCC63"/>
<path d="M260.42 321.223C261.458 309.26 248.074 300.038 234.024 302.845C231.176 292.283 219.728 284.384 206.036 284.384C189.81 284.384 176.726 295.481 177.392 308.955C177.384 308.955 177.375 308.955 177.366 308.955C163.186 308.955 151.691 318.415 151.691 330.086C151.691 341.481 162.652 350.768 176.37 351.199V351.216H258.85C268.933 351.216 277.107 344.489 277.107 336.19C277.107 328.327 269.767 321.879 260.42 321.223Z" fill="#D8ECFE"/>
<path d="M260.42 321.223C261.458 309.26 248.074 300.038 234.024 302.845C231.176 292.283 219.728 284.384 206.036 284.384C201.506 284.384 197.221 285.25 193.411 286.79C194.366 286.711 195.335 286.67 196.315 286.67C210.007 286.67 221.455 294.568 224.303 305.131C238.353 302.324 251.737 311.546 250.699 323.509C260.046 324.165 267.386 330.613 267.386 338.476C267.386 343.849 263.957 348.56 258.805 351.216H258.85C268.933 351.216 277.107 344.489 277.107 336.19C277.107 328.327 269.767 321.879 260.42 321.223Z" fill="#C4E2FF"/>
<g clip-path="url(#clip1)">
<path d="M273.146 253.459C273.51 248.36 268.814 244.428 263.885 245.625C262.886 241.122 258.869 237.755 254.066 237.755C248.374 237.755 243.783 242.486 244.017 248.23C244.014 248.23 244.011 248.23 244.008 248.23C239.033 248.23 235 252.262 235 257.237C235 262.095 238.846 266.054 243.658 266.237V266.245H272.595C276.132 266.245 279 263.377 279 259.839C279 256.488 276.425 253.739 273.146 253.459Z" fill="#D8ECFE"/>
<path d="M273.145 253.459C273.51 248.36 268.814 244.428 263.885 245.625C262.886 241.122 258.869 237.755 254.066 237.755C252.477 237.755 250.973 238.124 249.637 238.781C249.972 238.747 250.312 238.73 250.656 238.73C255.459 238.73 259.475 242.097 260.475 246.599C265.404 245.403 270.099 249.334 269.735 254.434C273.015 254.713 275.59 257.462 275.59 260.814C275.59 263.104 274.387 265.112 272.579 266.245H272.595C276.132 266.245 279 263.377 279 259.839C279 256.488 276.425 253.739 273.145 253.459Z" fill="#C4E2FF"/>
</g>
<path d="M76.2578 569H74V560.297L71.3047 561.133V559.297L76.0156 557.609H76.2578V569ZM86.0859 557.508V559.367H85.8672C84.8464 559.383 84.0234 559.648 83.3984 560.164C82.7786 560.68 82.4062 561.396 82.2812 562.312C82.8854 561.698 83.6484 561.391 84.5703 561.391C85.5599 561.391 86.3464 561.745 86.9297 562.453C87.513 563.161 87.8047 564.094 87.8047 565.25C87.8047 565.99 87.6432 566.659 87.3203 567.258C87.0026 567.857 86.5495 568.323 85.9609 568.656C85.3776 568.99 84.7161 569.156 83.9766 569.156C82.7786 569.156 81.8099 568.74 81.0703 567.906C80.3359 567.073 79.9688 565.961 79.9688 564.57V563.758C79.9688 562.523 80.2005 561.435 80.6641 560.492C81.1328 559.544 81.8021 558.812 82.6719 558.297C83.5469 557.776 84.5599 557.513 85.7109 557.508H86.0859ZM83.8828 563.203C83.5182 563.203 83.1875 563.299 82.8906 563.492C82.5938 563.68 82.375 563.93 82.2344 564.242V564.93C82.2344 565.685 82.3828 566.276 82.6797 566.703C82.9766 567.125 83.3932 567.336 83.9297 567.336C84.4141 567.336 84.8047 567.146 85.1016 566.766C85.4036 566.38 85.5547 565.883 85.5547 565.273C85.5547 564.654 85.4036 564.154 85.1016 563.773C84.7995 563.393 84.3932 563.203 83.8828 563.203ZM89.2969 560.242C89.2969 559.409 89.5443 558.74 90.0391 558.234C90.5391 557.724 91.1927 557.469 92 557.469C92.8073 557.469 93.4609 557.721 93.9609 558.227C94.4609 558.732 94.7109 559.417 94.7109 560.281V560.844C94.7109 561.672 94.4661 562.341 93.9766 562.852C93.487 563.357 92.8333 563.609 92.0156 563.609C91.1927 563.609 90.5339 563.354 90.0391 562.844C89.5443 562.333 89.2969 561.654 89.2969 560.805V560.242ZM90.6641 560.844C90.6641 561.354 90.7839 561.753 91.0234 562.039C91.2682 562.326 91.599 562.469 92.0156 562.469C92.4219 562.469 92.7422 562.328 92.9766 562.047C93.2161 561.766 93.3385 561.372 93.3438 560.867V560.242C93.3438 559.737 93.2214 559.341 92.9766 559.055C92.737 558.768 92.4115 558.625 92 558.625C91.5938 558.625 91.2682 558.768 91.0234 559.055C90.7839 559.336 90.6641 559.742 90.6641 560.273V560.844ZM105.633 565.211C105.544 566.435 105.091 567.398 104.273 568.102C103.461 568.805 102.388 569.156 101.055 569.156C99.5964 569.156 98.4479 568.667 97.6094 567.688C96.776 566.703 96.3594 565.354 96.3594 563.641V562.945C96.3594 561.852 96.5521 560.888 96.9375 560.055C97.3229 559.221 97.8724 558.583 98.5859 558.141C99.3047 557.693 100.138 557.469 101.086 557.469C102.398 557.469 103.456 557.82 104.258 558.523C105.06 559.227 105.523 560.214 105.648 561.484H103.305C103.247 560.75 103.042 560.219 102.688 559.891C102.339 559.557 101.805 559.391 101.086 559.391C100.305 559.391 99.7188 559.672 99.3281 560.234C98.9427 560.792 98.7448 561.659 98.7344 562.836V563.695C98.7344 564.924 98.9193 565.823 99.2891 566.391C99.6641 566.958 100.253 567.242 101.055 567.242C101.779 567.242 102.318 567.078 102.672 566.75C103.031 566.417 103.237 565.904 103.289 565.211H105.633Z" fill="white"/>
<path d="M263.57 569H255.773V567.453L259.453 563.531C259.958 562.979 260.331 562.497 260.57 562.086C260.815 561.674 260.938 561.284 260.938 560.914C260.938 560.409 260.81 560.013 260.555 559.727C260.299 559.435 259.935 559.289 259.461 559.289C258.951 559.289 258.547 559.466 258.25 559.82C257.958 560.169 257.812 560.63 257.812 561.203H255.547C255.547 560.51 255.711 559.878 256.039 559.305C256.372 558.732 256.841 558.284 257.445 557.961C258.049 557.633 258.734 557.469 259.5 557.469C260.672 557.469 261.581 557.75 262.227 558.312C262.878 558.875 263.203 559.669 263.203 560.695C263.203 561.258 263.057 561.831 262.766 562.414C262.474 562.997 261.974 563.677 261.266 564.453L258.68 567.18H263.57V569ZM272.375 560.648C272.375 561.201 272.237 561.69 271.961 562.117C271.685 562.544 271.305 562.885 270.82 563.141C271.372 563.406 271.81 563.773 272.133 564.242C272.456 564.706 272.617 565.253 272.617 565.883C272.617 566.893 272.273 567.693 271.586 568.281C270.898 568.865 269.964 569.156 268.781 569.156C267.599 569.156 266.661 568.862 265.969 568.273C265.276 567.685 264.93 566.888 264.93 565.883C264.93 565.253 265.091 564.703 265.414 564.234C265.737 563.766 266.172 563.401 266.719 563.141C266.234 562.885 265.854 562.544 265.578 562.117C265.307 561.69 265.172 561.201 265.172 560.648C265.172 559.68 265.495 558.909 266.141 558.336C266.786 557.758 267.664 557.469 268.773 557.469C269.878 557.469 270.753 557.755 271.398 558.328C272.049 558.896 272.375 559.669 272.375 560.648ZM270.352 565.719C270.352 565.224 270.208 564.828 269.922 564.531C269.635 564.234 269.25 564.086 268.766 564.086C268.286 564.086 267.904 564.234 267.617 564.531C267.331 564.823 267.188 565.219 267.188 565.719C267.188 566.203 267.328 566.594 267.609 566.891C267.891 567.188 268.281 567.336 268.781 567.336C269.271 567.336 269.654 567.193 269.93 566.906C270.211 566.62 270.352 566.224 270.352 565.719ZM270.117 560.758C270.117 560.315 270 559.961 269.766 559.695C269.531 559.424 269.201 559.289 268.773 559.289C268.352 559.289 268.023 559.419 267.789 559.68C267.555 559.94 267.438 560.299 267.438 560.758C267.438 561.211 267.555 561.576 267.789 561.852C268.023 562.128 268.354 562.266 268.781 562.266C269.208 562.266 269.536 562.128 269.766 561.852C270 561.576 270.117 561.211 270.117 560.758ZM274.297 560.242C274.297 559.409 274.544 558.74 275.039 558.234C275.539 557.724 276.193 557.469 277 557.469C277.807 557.469 278.461 557.721 278.961 558.227C279.461 558.732 279.711 559.417 279.711 560.281V560.844C279.711 561.672 279.466 562.341 278.977 562.852C278.487 563.357 277.833 563.609 277.016 563.609C276.193 563.609 275.534 563.354 275.039 562.844C274.544 562.333 274.297 561.654 274.297 560.805V560.242ZM275.664 560.844C275.664 561.354 275.784 561.753 276.023 562.039C276.268 562.326 276.599 562.469 277.016 562.469C277.422 562.469 277.742 562.328 277.977 562.047C278.216 561.766 278.339 561.372 278.344 560.867V560.242C278.344 559.737 278.221 559.341 277.977 559.055C277.737 558.768 277.411 558.625 277 558.625C276.594 558.625 276.268 558.768 276.023 559.055C275.784 559.336 275.664 559.742 275.664 560.273V560.844ZM290.633 565.211C290.544 566.435 290.091 567.398 289.273 568.102C288.461 568.805 287.388 569.156 286.055 569.156C284.596 569.156 283.448 568.667 282.609 567.688C281.776 566.703 281.359 565.354 281.359 563.641V562.945C281.359 561.852 281.552 560.888 281.938 560.055C282.323 559.221 282.872 558.583 283.586 558.141C284.305 557.693 285.138 557.469 286.086 557.469C287.398 557.469 288.456 557.82 289.258 558.523C290.06 559.227 290.523 560.214 290.648 561.484H288.305C288.247 560.75 288.042 560.219 287.688 559.891C287.339 559.557 286.805 559.391 286.086 559.391C285.305 559.391 284.719 559.672 284.328 560.234C283.943 560.792 283.745 561.659 283.734 562.836V563.695C283.734 564.924 283.919 565.823 284.289 566.391C284.664 566.958 285.253 567.242 286.055 567.242C286.779 567.242 287.318 567.078 287.672 566.75C288.031 566.417 288.237 565.904 288.289 565.211H290.633Z" fill="white"/>
<path d="M153.688 570H130.297V565.359L141.336 553.594C142.852 551.938 143.969 550.492 144.688 549.258C145.422 548.023 145.789 546.852 145.789 545.742C145.789 544.227 145.406 543.039 144.641 542.18C143.875 541.305 142.781 540.867 141.359 540.867C139.828 540.867 138.617 541.398 137.727 542.461C136.852 543.508 136.414 544.891 136.414 546.609H129.617C129.617 544.531 130.109 542.633 131.094 540.914C132.094 539.195 133.5 537.852 135.312 536.883C137.125 535.898 139.18 535.406 141.477 535.406C144.992 535.406 147.719 536.25 149.656 537.938C151.609 539.625 152.586 542.008 152.586 545.086C152.586 546.773 152.148 548.492 151.273 550.242C150.398 551.992 148.898 554.031 146.773 556.359L139.016 564.539H153.688V570ZM180.828 555.891C180.828 560.609 179.852 564.219 177.898 566.719C175.945 569.219 173.086 570.469 169.32 570.469C165.602 570.469 162.758 569.242 160.789 566.789C158.82 564.336 157.812 560.82 157.766 556.242V549.961C157.766 545.195 158.75 541.578 160.719 539.109C162.703 536.641 165.555 535.406 169.273 535.406C172.992 535.406 175.836 536.633 177.805 539.086C179.773 541.523 180.781 545.031 180.828 549.609V555.891ZM174.055 549C174.055 546.172 173.664 544.117 172.883 542.836C172.117 541.539 170.914 540.891 169.273 540.891C167.68 540.891 166.5 541.508 165.734 542.742C164.984 543.961 164.586 545.875 164.539 548.484V556.781C164.539 559.562 164.914 561.633 165.664 562.992C166.43 564.336 167.648 565.008 169.32 565.008C170.977 565.008 172.172 564.359 172.906 563.062C173.641 561.766 174.023 559.781 174.055 557.109V549ZM185.867 543.727C185.867 541.227 186.609 539.219 188.094 537.703C189.594 536.172 191.555 535.406 193.977 535.406C196.398 535.406 198.359 536.164 199.859 537.68C201.359 539.195 202.109 541.25 202.109 543.844V545.531C202.109 548.016 201.375 550.023 199.906 551.555C198.438 553.07 196.477 553.828 194.023 553.828C191.555 553.828 189.578 553.062 188.094 551.531C186.609 550 185.867 547.961 185.867 545.414V543.727ZM189.969 545.531C189.969 547.062 190.328 548.258 191.047 549.117C191.781 549.977 192.773 550.406 194.023 550.406C195.242 550.406 196.203 549.984 196.906 549.141C197.625 548.297 197.992 547.117 198.008 545.602V543.727C198.008 542.211 197.641 541.023 196.906 540.164C196.188 539.305 195.211 538.875 193.977 538.875C192.758 538.875 191.781 539.305 191.047 540.164C190.328 541.008 189.969 542.227 189.969 543.82V545.531ZM234.875 558.633C234.609 562.305 233.25 565.195 230.797 567.305C228.359 569.414 225.141 570.469 221.141 570.469C216.766 570.469 213.32 569 210.805 566.062C208.305 563.109 207.055 559.062 207.055 553.922V551.836C207.055 548.555 207.633 545.664 208.789 543.164C209.945 540.664 211.594 538.75 213.734 537.422C215.891 536.078 218.391 535.406 221.234 535.406C225.172 535.406 228.344 536.461 230.75 538.57C233.156 540.68 234.547 543.641 234.922 547.453H227.891C227.719 545.25 227.102 543.656 226.039 542.672C224.992 541.672 223.391 541.172 221.234 541.172C218.891 541.172 217.133 542.016 215.961 543.703C214.805 545.375 214.211 547.977 214.18 551.508V554.086C214.18 557.773 214.734 560.469 215.844 562.172C216.969 563.875 218.734 564.727 221.141 564.727C223.312 564.727 224.93 564.234 225.992 563.25C227.07 562.25 227.688 560.711 227.844 558.633H234.875Z" fill="white"/>
<path d="M100.363 550.762L95.2643 546.156C94.9119 545.837 94.9119 545.323 95.2643 545.008L96.1115 544.242C96.4639 543.924 97.0337 543.924 97.3824 544.242L101 547.504L104.614 544.239C104.966 543.92 105.536 543.92 105.885 544.239L106.736 545.004C107.088 545.323 107.088 545.837 106.736 546.152L101.637 550.758C101.285 551.08 100.715 551.08 100.363 550.762Z" fill="white"/>
<path d="M286.637 543.238L291.736 547.844C292.088 548.163 292.088 548.677 291.736 548.992L290.888 549.758C290.536 550.076 289.966 550.076 289.618 549.758L286 546.496L282.386 549.761C282.034 550.08 281.464 550.08 281.115 549.761L280.264 548.996C279.912 548.677 279.912 548.163 280.264 547.848L285.363 543.242C285.715 542.92 286.285 542.92 286.637 543.238Z" fill="white"/>
<path d="M74.0361 543.891L76.3604 549.691L78.6846 543.891H79.9004V551H78.9629V548.231L79.0508 545.243L76.7168 551H75.999L73.6699 545.258L73.7627 548.231V551H72.8252V543.891H74.0361ZM82.5615 551H81.624V543.891H82.5615V551ZM89.7441 551H88.8018L85.2227 545.521V551H84.2803V543.891H85.2227L88.8115 549.394V543.891H89.7441V551Z" fill="white"/>
<path d="M257.036 542.891L259.36 548.691L261.685 542.891H262.9V550H261.963V547.231L262.051 544.243L259.717 550H258.999L256.67 544.258L256.763 547.231V550H255.825V542.891H257.036ZM268.569 548.145H265.591L264.922 550H263.955L266.67 542.891H267.49L270.21 550H269.248L268.569 548.145ZM265.874 547.373H268.291L267.08 544.048L265.874 547.373ZM273.486 545.615L275.19 542.891H276.294L274.048 546.416L276.348 550H275.234L273.486 547.227L271.729 550H270.62L272.925 546.416L270.674 542.891H271.772L273.486 545.615Z" fill="white"/>
<path d="M140.914 501.016C140.914 500.573 140.758 500.234 140.445 500C140.133 499.76 139.57 499.51 138.758 499.25C137.945 498.984 137.302 498.724 136.828 498.469C135.536 497.771 134.891 496.831 134.891 495.648C134.891 495.034 135.062 494.487 135.406 494.008C135.755 493.523 136.253 493.146 136.898 492.875C137.549 492.604 138.279 492.469 139.086 492.469C139.898 492.469 140.622 492.617 141.258 492.914C141.893 493.206 142.385 493.62 142.734 494.156C143.089 494.693 143.266 495.302 143.266 495.984H140.922C140.922 495.464 140.758 495.06 140.43 494.773C140.102 494.482 139.641 494.336 139.047 494.336C138.474 494.336 138.029 494.458 137.711 494.703C137.393 494.943 137.234 495.26 137.234 495.656C137.234 496.026 137.419 496.336 137.789 496.586C138.164 496.836 138.714 497.07 139.438 497.289C140.771 497.69 141.742 498.188 142.352 498.781C142.961 499.375 143.266 500.115 143.266 501C143.266 501.984 142.893 502.758 142.148 503.32C141.404 503.878 140.401 504.156 139.141 504.156C138.266 504.156 137.469 503.997 136.75 503.68C136.031 503.357 135.482 502.917 135.102 502.359C134.727 501.802 134.539 501.156 134.539 500.422H136.891C136.891 501.677 137.641 502.305 139.141 502.305C139.698 502.305 140.133 502.193 140.445 501.969C140.758 501.74 140.914 501.422 140.914 501.016ZM151.703 499.07H147.203V502.117H152.484V504H144.859V492.625H152.469V494.523H147.203V497.234H151.703V499.07ZM162.578 494.523H159.094V504H156.75V494.523H153.312V492.625H162.578V494.523ZM170.766 499.07H166.266V502.117H171.547V504H163.922V492.625H171.531V494.523H166.266V497.234H170.766V499.07ZM179.25 502.117H184.227V504H176.906V492.625H179.25V502.117ZM192.156 501.656H188.047L187.266 504H184.773L189.008 492.625H191.18L195.438 504H192.945L192.156 501.656ZM188.68 499.758H191.523L190.094 495.5L188.68 499.758ZM205.328 502.562C204.906 503.068 204.31 503.461 203.539 503.742C202.768 504.018 201.914 504.156 200.977 504.156C199.992 504.156 199.128 503.943 198.383 503.516C197.643 503.083 197.07 502.458 196.664 501.641C196.263 500.823 196.057 499.862 196.047 498.758V497.984C196.047 496.849 196.237 495.867 196.617 495.039C197.003 494.206 197.555 493.57 198.273 493.133C198.997 492.69 199.844 492.469 200.812 492.469C202.161 492.469 203.216 492.792 203.977 493.438C204.737 494.078 205.188 495.013 205.328 496.242H203.047C202.943 495.591 202.711 495.115 202.352 494.812C201.997 494.51 201.508 494.359 200.883 494.359C200.086 494.359 199.479 494.659 199.062 495.258C198.646 495.857 198.435 496.747 198.43 497.93V498.656C198.43 499.849 198.656 500.75 199.109 501.359C199.562 501.969 200.227 502.273 201.102 502.273C201.982 502.273 202.609 502.086 202.984 501.711V499.75H200.852V498.023H205.328V502.562ZM216.578 498.57C216.578 499.69 216.38 500.672 215.984 501.516C215.589 502.359 215.021 503.01 214.281 503.469C213.547 503.927 212.703 504.156 211.75 504.156C210.807 504.156 209.966 503.93 209.227 503.477C208.487 503.023 207.914 502.378 207.508 501.539C207.102 500.695 206.896 499.727 206.891 498.633V498.07C206.891 496.951 207.091 495.966 207.492 495.117C207.898 494.263 208.469 493.609 209.203 493.156C209.943 492.698 210.786 492.469 211.734 492.469C212.682 492.469 213.523 492.698 214.258 493.156C214.997 493.609 215.568 494.263 215.969 495.117C216.375 495.966 216.578 496.948 216.578 498.062V498.57ZM214.203 498.055C214.203 496.862 213.99 495.956 213.562 495.336C213.135 494.716 212.526 494.406 211.734 494.406C210.948 494.406 210.341 494.714 209.914 495.328C209.487 495.938 209.271 496.833 209.266 498.016V498.57C209.266 499.732 209.479 500.633 209.906 501.273C210.333 501.914 210.948 502.234 211.75 502.234C212.536 502.234 213.141 501.927 213.562 501.312C213.984 500.693 214.198 499.792 214.203 498.609V498.055ZM224.531 501.656H220.422L219.641 504H217.148L221.383 492.625H223.555L227.812 504H225.32L224.531 501.656ZM221.055 499.758H223.898L222.469 495.5L221.055 499.758ZM234.773 501.016C234.773 500.573 234.617 500.234 234.305 500C233.992 499.76 233.43 499.51 232.617 499.25C231.805 498.984 231.161 498.724 230.688 498.469C229.396 497.771 228.75 496.831 228.75 495.648C228.75 495.034 228.922 494.487 229.266 494.008C229.615 493.523 230.112 493.146 230.758 492.875C231.409 492.604 232.138 492.469 232.945 492.469C233.758 492.469 234.482 492.617 235.117 492.914C235.753 493.206 236.245 493.62 236.594 494.156C236.948 494.693 237.125 495.302 237.125 495.984H234.781C234.781 495.464 234.617 495.06 234.289 494.773C233.961 494.482 233.5 494.336 232.906 494.336C232.333 494.336 231.888 494.458 231.57 494.703C231.253 494.943 231.094 495.26 231.094 495.656C231.094 496.026 231.279 496.336 231.648 496.586C232.023 496.836 232.573 497.07 233.297 497.289C234.63 497.69 235.602 498.188 236.211 498.781C236.82 499.375 237.125 500.115 237.125 501C237.125 501.984 236.753 502.758 236.008 503.32C235.263 503.878 234.26 504.156 233 504.156C232.125 504.156 231.328 503.997 230.609 503.68C229.891 503.357 229.341 502.917 228.961 502.359C228.586 501.802 228.398 501.156 228.398 500.422H230.75C230.75 501.677 231.5 502.305 233 502.305C233.557 502.305 233.992 502.193 234.305 501.969C234.617 501.74 234.773 501.422 234.773 501.016Z" fill="white"/>
<g filter="url(#filter1_d)">
<rect x="52" y="663" width="276" height="51" rx="16" fill="white"/>
</g>
<path d="M120.523 691.475L123.746 680.781H127.008L122.057 695H119L114.068 680.781H117.32L120.523 691.475ZM136.91 688.838H131.285V692.646H137.887V695H128.355V680.781H137.867V683.154H131.285V686.543H136.91V688.838ZM144.869 689.795H142.535V695H139.605V680.781H144.889C146.568 680.781 147.864 681.156 148.775 681.904C149.687 682.653 150.143 683.711 150.143 685.078C150.143 686.048 149.931 686.859 149.508 687.51C149.091 688.154 148.456 688.669 147.604 689.053L150.68 694.863V695H147.535L144.869 689.795ZM142.535 687.422H144.898C145.634 687.422 146.204 687.236 146.607 686.865C147.011 686.488 147.213 685.97 147.213 685.312C147.213 684.642 147.021 684.115 146.637 683.73C146.259 683.346 145.676 683.154 144.889 683.154H142.535V687.422ZM157.359 695V680.781H161.734C162.984 680.781 164.101 681.064 165.084 681.631C166.074 682.191 166.845 682.992 167.398 684.033C167.952 685.068 168.229 686.247 168.229 687.568V688.223C168.229 689.544 167.955 690.719 167.408 691.748C166.868 692.777 166.103 693.574 165.113 694.141C164.124 694.707 163.007 694.993 161.764 695H157.359ZM160.289 683.154V692.646H161.705C162.851 692.646 163.727 692.272 164.332 691.523C164.938 690.775 165.247 689.704 165.26 688.311V687.559C165.26 686.113 164.96 685.02 164.361 684.277C163.762 683.529 162.887 683.154 161.734 683.154H160.289ZM178.922 688.838H173.297V692.646H179.898V695H170.367V680.781H179.879V683.154H173.297V686.543H178.922V688.838ZM192.516 683.154H188.16V695H185.23V683.154H180.934V680.781H192.516V683.154ZM201.051 692.07H195.914L194.938 695H191.822L197.115 680.781H199.83L205.152 695H202.037L201.051 692.07ZM196.705 689.697H200.26L198.473 684.375L196.705 689.697ZM209.41 692.646H215.631V695H206.48V680.781H209.41V692.646ZM228.893 695H225.963V688.906H220.25V695H217.32V680.781H220.25V686.543H225.963V680.781H228.893V695ZM240.016 688.838H234.391V692.646H240.992V695H231.461V680.781H240.973V683.154H234.391V686.543H240.016V688.838ZM250.084 691.27C250.084 690.716 249.889 690.293 249.498 690C249.107 689.701 248.404 689.388 247.389 689.062C246.373 688.73 245.569 688.405 244.977 688.086C243.362 687.214 242.555 686.038 242.555 684.561C242.555 683.792 242.77 683.109 243.199 682.51C243.635 681.904 244.257 681.432 245.064 681.094C245.878 680.755 246.79 680.586 247.799 680.586C248.814 680.586 249.719 680.771 250.514 681.143C251.308 681.507 251.923 682.025 252.359 682.695C252.802 683.366 253.023 684.128 253.023 684.98H250.094C250.094 684.329 249.889 683.825 249.479 683.467C249.068 683.102 248.492 682.92 247.75 682.92C247.034 682.92 246.477 683.073 246.08 683.379C245.683 683.678 245.484 684.076 245.484 684.57C245.484 685.033 245.715 685.42 246.178 685.732C246.646 686.045 247.333 686.338 248.238 686.611C249.905 687.113 251.119 687.734 251.881 688.477C252.643 689.219 253.023 690.143 253.023 691.25C253.023 692.48 252.558 693.447 251.627 694.15C250.696 694.847 249.443 695.195 247.867 695.195C246.773 695.195 245.777 694.997 244.879 694.6C243.98 694.196 243.294 693.646 242.818 692.949C242.35 692.253 242.115 691.445 242.115 690.527H245.055C245.055 692.096 245.992 692.881 247.867 692.881C248.564 692.881 249.107 692.741 249.498 692.461C249.889 692.174 250.084 691.777 250.084 691.27Z" fill="#027FFF"/>
<path d="M120.523 691.475L123.746 680.781H127.008L122.057 695H119L114.068 680.781H117.32L120.523 691.475ZM136.91 688.838H131.285V692.646H137.887V695H128.355V680.781H137.867V683.154H131.285V686.543H136.91V688.838ZM144.869 689.795H142.535V695H139.605V680.781H144.889C146.568 680.781 147.864 681.156 148.775 681.904C149.687 682.653 150.143 683.711 150.143 685.078C150.143 686.048 149.931 686.859 149.508 687.51C149.091 688.154 148.456 688.669 147.604 689.053L150.68 694.863V695H147.535L144.869 689.795ZM142.535 687.422H144.898C145.634 687.422 146.204 687.236 146.607 686.865C147.011 686.488 147.213 685.97 147.213 685.312C147.213 684.642 147.021 684.115 146.637 683.73C146.259 683.346 145.676 683.154 144.889 683.154H142.535V687.422ZM157.359 695V680.781H161.734C162.984 680.781 164.101 681.064 165.084 681.631C166.074 682.191 166.845 682.992 167.398 684.033C167.952 685.068 168.229 686.247 168.229 687.568V688.223C168.229 689.544 167.955 690.719 167.408 691.748C166.868 692.777 166.103 693.574 165.113 694.141C164.124 694.707 163.007 694.993 161.764 695H157.359ZM160.289 683.154V692.646H161.705C162.851 692.646 163.727 692.272 164.332 691.523C164.938 690.775 165.247 689.704 165.26 688.311V687.559C165.26 686.113 164.96 685.02 164.361 684.277C163.762 683.529 162.887 683.154 161.734 683.154H160.289ZM178.922 688.838H173.297V692.646H179.898V695H170.367V680.781H179.879V683.154H173.297V686.543H178.922V688.838ZM192.516 683.154H188.16V695H185.23V683.154H180.934V680.781H192.516V683.154ZM201.051 692.07H195.914L194.938 695H191.822L197.115 680.781H199.83L205.152 695H202.037L201.051 692.07ZM196.705 689.697H200.26L198.473 684.375L196.705 689.697ZM209.41 692.646H215.631V695H206.48V680.781H209.41V692.646ZM228.893 695H225.963V688.906H220.25V695H217.32V680.781H220.25V686.543H225.963V680.781H228.893V695ZM240.016 688.838H234.391V692.646H240.992V695H231.461V680.781H240.973V683.154H234.391V686.543H240.016V688.838ZM250.084 691.27C250.084 690.716 249.889 690.293 249.498 690C249.107 689.701 248.404 689.388 247.389 689.062C246.373 688.73 245.569 688.405 244.977 688.086C243.362 687.214 242.555 686.038 242.555 684.561C242.555 683.792 242.77 683.109 243.199 682.51C243.635 681.904 244.257 681.432 245.064 681.094C245.878 680.755 246.79 680.586 247.799 680.586C248.814 680.586 249.719 680.771 250.514 681.143C251.308 681.507 251.923 682.025 252.359 682.695C252.802 683.366 253.023 684.128 253.023 684.98H250.094C250.094 684.329 249.889 683.825 249.479 683.467C249.068 683.102 248.492 682.92 247.75 682.92C247.034 682.92 246.477 683.073 246.08 683.379C245.683 683.678 245.484 684.076 245.484 684.57C245.484 685.033 245.715 685.42 246.178 685.732C246.646 686.045 247.333 686.338 248.238 686.611C249.905 687.113 251.119 687.734 251.881 688.477C252.643 689.219 253.023 690.143 253.023 691.25C253.023 692.48 252.558 693.447 251.627 694.15C250.696 694.847 249.443 695.195 247.867 695.195C246.773 695.195 245.777 694.997 244.879 694.6C243.98 694.196 243.294 693.646 242.818 692.949C242.35 692.253 242.115 691.445 242.115 690.527H245.055C245.055 692.096 245.992 692.881 247.867 692.881C248.564 692.881 249.107 692.741 249.498 692.461C249.889 692.174 250.084 691.777 250.084 691.27Z" fill="url(#paint3_linear)"/>
</g>
<defs>
<filter id="filter0_d" x="-4" y="0" width="383" height="820" filterUnits="userSpaceOnUse" color-interpolation-filters="sRGB">
<feFlood flood-opacity="0" result="BackgroundImageFix"/>
<feColorMatrix in="SourceAlpha" type="matrix" values="0 0 0 0 0 0 0 0 0 0 0 0 0 0 0 0 0 0 127 0"/>
<feOffset dy="4"/>
<feGaussianBlur stdDeviation="2"/>
<feColorMatrix type="matrix" values="0 0 0 0 0 0 0 0 0 0 0 0 0 0 0 0 0 0 0.25 0"/>
<feBlend mode="normal" in2="BackgroundImageFix" result="effect1_dropShadow"/>
<feBlend mode="normal" in="SourceGraphic" in2="effect1_dropShadow" result="shape"/>
</filter>
<filter id="filter1_d" x="48" y="663" width="284" height="59" filterUnits="userSpaceOnUse" color-interpolation-filters="sRGB">
<feFlood flood-opacity="0" result="BackgroundImageFix"/>
<feColorMatrix in="SourceAlpha" type="matrix" values="0 0 0 0 0 0 0 0 0 0 0 0 0 0 0 0 0 0 127 0"/>
<feOffset dy="4"/>
<feGaussianBlur stdDeviation="2"/>
<feColorMatrix type="matrix" values="0 0 0 0 0 0 0 0 0 0 0 0 0 0 0 0 0 0 0.25 0"/>
<feBlend mode="normal" in2="BackgroundImageFix" result="effect1_dropShadow"/>
<feBlend mode="normal" in="SourceGraphic" in2="effect1_dropShadow" result="shape"/>
</filter>
<linearGradient id="paint0_linear" x1="187.5" y1="0" x2="187.5" y2="812" gradientUnits="userSpaceOnUse">
<stop stop-color="white"/>
<stop offset="1" stop-color="white" stop-opacity="0"/>
</linearGradient>
<linearGradient id="paint1_linear" x1="10.1744" y1="16.4725" x2="374.989" y2="793.11" gradientUnits="userSpaceOnUse">
<stop stop-color="#00AFEF"/>
<stop offset="1" stop-color="white" stop-opacity="0"/>
</linearGradient>
<linearGradient id="paint2_linear" x1="10.1744" y1="16.4725" x2="374.989" y2="793.11" gradientUnits="userSpaceOnUse">
<stop stop-color="#00AFEF"/>
<stop offset="1" stop-color="white" stop-opacity="0"/>
</linearGradient>
<linearGradient id="paint3_linear" x1="118.097" y1="677.487" x2="119.062" y2="705.473" gradientUnits="userSpaceOnUse">
<stop stop-color="#00AFEF"/>
<stop offset="1" stop-color="white" stop-opacity="0"/>
</linearGradient>
<clipPath id="clip0">
<rect width="375" height="812" fill="white"/>
</clipPath>
<clipPath id="clip1">
<rect width="44" height="44" fill="white" transform="translate(235 230)"/>
</clipPath>
</defs>
</svg>
